{"title":"Gia 1998 DVDrip English Klam","uid":6233441,"size":1895398987,"categoryP":"video","categoryS":"movies","magnet":"?xt=urn:btih:caf6194131b6328e4a7b7c9ba824e0a1f14bac2c&amp;dn=Gia+1998+DVDrip+English+Klam&amp;tr=udp%3A%2F%2Ftracker.openbittorrent.com%3A80&amp;tr=udp%3A%2F%2Fopen.demonii.com%3A1337&amp;tr=udp%3A%2F%2Ftracker.coppersurfer.tk%3A6969&amp;tr=udp%3A%2F%2Fexodus.desync.com%3A6969","seeders":0,"leechers":1,"uploader":"Klambake","files":-1,"time":1299788848,"description":"With: Angelina Jolie, Elizabeth Mitchell and Eric Michael Cole\n\nFact-based story of top fashion model Gia Marie Carangi follows her life from a rebel working in her father's diner at age 17 to her death in 1986 at age 26 from AIDS, one of the first women in America whose death was attributed to the disease. In between, she followed a downward spiral of drug abuse and failed relationships. \n\nGeneral:\n\nComplete name                    : Gia\\Gia.avi\nFormat                           : AVI\nFormat/Info                      : Audio Video Interleave\nFile size                        : 1.76 GiB\nDuration                         : 2h 5mn\nOverall bit rate                 : 2 019 Kbps\n\nVideo:\n\nFormat                           : MPEG-4 Visual\nFormat profile                   : Simple@L3\nFormat settings, BVOP            : No\nFormat settings, QPel            : No\nFormat settings, GMC             : No warppoints\nFormat settings, Matrix          : Default (H.263)\nCodec ID                         : XVID\nCodec ID/Hint                    : XviD\nDuration                         : 2h 5mn\nBit rate                         : 1 816 Kbps\nWidth                            : 640 pixels\nHeight                           : 480 pixels\nDisplay aspect ratio             : 4:3\nFrame rate                       : 23.976 fps\nColor space                      : YUV\nChroma subsampling               : 4:2:0\nBit depth                        : 8 bits\nScan type                        : Progressive\nBits/(Pixel*Frame)               : 0.247\nStream size                      : 1.59 GiB (90%)\nWriting library                  : XviD 1.1.2 (UTC 2006-11-01)\n\nAudio:\n\nFormat                           : AC-3\nFormat/Info                      : Audio Coding 3\nFormat profile                   : Dolby Digital\nMode extension                   : CM (complete main)\nCodec ID                         : 2000\nDuration                         : 2h 5mn\nBit rate mode                    : Constant\nBit rate                         : 192 Kbps\nChannel(s)                       : 2 channels\nChannel positions                : Front: L R\nSampling rate                    : 48.0 KHz\nBit depth                        : 16 bits\nStream size                      : 172 MiB (10%)\nAlignment                        : Aligned on interleaves\nInterleave, duration             : 32 ms (0.77 video frame)","torrent":{"xt":"urn:btih:caf6194131b6328e4a7b7c9ba824e0a1f14bac2c","amp;dn":"Gia+1998+DVDrip+English+Klam","amp;tr":["udp%3A%2F%2Ftracker.openbittorrent.com%3A80","udp%3A%2F%2Fopen.demonii.com%3A1337","udp%3A%2F%2Ftracker.coppersurfer.tk%3A6969","udp%3A%2F%2Fexodus.desync.com%3A6969"],"infoHash":"caf6194131b6328e4a7b7c9ba824e0a1f14bac2c","infoHashBuffer":{"type":"Buffer","data":[202,246,25,65,49,182,50,142,74,123,124,155,168,36,224,161,241,75,172,44]},"announce":[],"urlList":[]}}